#!OML:ASF H:\LiuWeirdWalks\Patient Classification 1\Patient 1\Session 1\male.ASF
:FULLY-SPECIFIED
:DEGREES
774
root 0.166007 18.0991 30.7918 -5.69267 15.0129 -4.37035
lowerback 7.10876 4.92277 -3.09521
upperback 1.22102 6.28147 -1.24127
thorax -2.89553 3.15044 -0.161774
lowerneck -22.5192 -0.480461 2.73594
upperneck 13.9353 -0.871476 -3.30866
head 7.95512 -0.612224 -1.66934
rclavicle 1.04362e-014 -2.06736e-014
rhumerus -17.2064 -10.1104 -67.7684
rradius 39.4779
rwrist -15.6645
rhand -19.9717 -7.27437
rfingers 7.12502
rthumb 6.36712 -37.1587
lclavicle 1.04362e-014 -2.06736e-014
lhumerus -47.3413 16.5165 65.628
lradius 36.6847
lwrist 15.8135
lhand -17.0332 1.33895
lfingers 7.12502
lthumb 9.20327 31.1181
rfemur -0.836686 -1.84151 29.6027
rtibia 23.8758
rfoot -9.10237 -31.3519
rtoes 1.93617
lfemur -44.5824 -0.574993 -10.4055
ltibia 25.7572
lfoot 1.5796 17.2814
ltoes -18.3541
775
root 0.174371 18.1157 30.8575 -5.21307 14.8829 -3.92474
lowerback 6.91671 5.05063 -3.37482
upperback 1.1381 6.43027 -1.46657
thorax -2.8828 3.22671 -0.241669
lowerneck -22.7103 -0.522419 2.62325
upperneck 14.0756 -0.908781 -3.23562
head 8.03378 -0.629345 -1.63484
rclavicle -6.77856e-014 2.06736e-014
rhumerus -16.7405 -10.1664 -67.6732
rradius 39.9999
rwrist -15.5907
rhand -20.0526 -7.134
rfingers 7.12502
rthumb 6.28902 -37.0206
lclavicle -6.77856e-014 2.06736e-014
lhumerus -47.3642 16.9614 65.4653
lradius 36.3879
lwrist 15.4236
lhand -17.1296 1.56631
lfingers 7.12502
lthumb 9.11026 31.3495
rfemur -0.870867 -1.93324 29.1403
rtibia 23.6502
rfoot -9.00501 -31.1052
rtoes 1.8238
lfemur -45.3228 -3.02606 -9.02971
ltibia 23.5037
lfoot 0.756471 22.7557
ltoes -18.0227
776
root 0.181027 18.1271 30.9229 -4.80935 14.7654 -3.60565
lowerback 6.78119 5.16124 -3.56979
upperback 1.07289 6.5626 -1.64086
thorax -2.87948 3.29417 -0.317924
lowerneck -22.9519 -0.575811 2.47228
upperneck 14.2363 -0.953782 -3.1416
head 8.12801 -0.650222 -1.5888
rclavicle 8.66701e-014 -9.54166e-015
rhumerus -16.2712 -10.2444 -67.5985
rradius 40.5262
rwrist -15.5456
rhand -20.1076 -7.01551
rfingers 7.12502
rthumb 6.23589 -36.9037
lclavicle 8.66701e-014 -9.54166e-015
lhumerus -47.3605 17.391 65.3509
lradius 36.0359
lwrist 15.0997
lhand -17.267 1.78298
lfingers 7.12502
lthumb 8.9777 31.572
rfemur -0.901776 -1.99632 28.8256
rtibia 23.4954
rfoot -8.94542 -30.92
rtoes 1.70175
lfemur -46.1551 -1.54874 -10.1015
ltibia 21.7766
lfoot -0.379973 23.642
ltoes -18.4235
777
root 0.184886 18.1357 30.9866 -4.48882 14.669 -3.41696
lowerback 6.73359 5.16484 -3.73902
upperback 0.943248 6.54888 -1.7791
thorax -2.98966 3.29006 -0.36927
lowerneck -22.954 -0.49382 2.5707
upperneck 14.3179 -0.871036 -3.15205
head 8.15805 -0.606493 -1.59831
rclavicle -1.81888e-014 -9.54166e-015
rhumerus -15.8454 -10.06 -67.7317
rradius 41.0446
rwrist -15.4914
rhand -20.1685 -6.87433
rfingers 7.12502
rthumb 6.17715 -36.7643
lclavicle -1.81888e-014 -9.54166e-015
lhumerus -47.6021 17.9072 65.0213
lradius 35.6663
lwrist 14.7953
lhand -17.38 1.90789
lfingers 7.12502
lthumb 8.86864 31.7015
rfemur -0.910397 -2.01658 28.6657
rtibia 23.3798
rfoot -8.90047 -30.804
rtoes 1.56778
lfemur -46.9878 -0.156783 -11.1598
ltibia 20.5603
lfoot -2.17581 24.0262
ltoes -18.7674
778
root 0.185879 18.1433 31.0489 -4.18903 14.6455 -3.23799
lowerback 6.72657 5.05923 -4.00312
upperback 0.754671 6.37814 -1.91175
thorax -3.19063 3.21029 -0.355086
lowerneck -22.733 -0.293108 2.88942
upperneck 14.3331 -0.677498 -3.24427
head 8.1311 -0.505355 -1.65373
rclavicle -6.55989e-015 2.06736e-014
rhumerus -15.464 -9.63614 -68.0567
rradius 41.5605
rwrist -15.4301
rhand -20.2251 -6.72932
rfingers 7.12502
rthumb 6.12252 -36.6208
lclavicle -6.55989e-015 2.06736e-014
lhumerus -48.0618 18.4703 64.5142
lradius 35.301
lwrist 14.5689
lhand -17.4703 2.06639
lfingers 7.12502
lthumb 8.78156 31.8637
rfemur -0.934265 -2.01163 28.528
rtibia 23.3174
rfoot -8.9149 -30.759
rtoes 1.4677
lfemur -47.8174 1.10028 -12.3124
ltibia 19.7663
lfoot -3.92034 23.5158
ltoes -18.814
779
root 0.185039 18.1509 31.109 -3.89939 14.6821 -3.06517
lowerback 6.76132 4.84057 -4.35893
upperback 0.491165 6.0436 -2.04051
thorax -3.49737 3.05274 -0.277571
lowerneck -22.2365 0.0406965 3.47213
upperneck 14.2741 -0.3558 -3.44767
head 8.0378 -0.338542 -1.77016
rclavicle 4.82053e-015 -2.22639e-014
rhumerus -15.1555 -8.92753 -68.5823
rradius 42.0874
rwrist -15.3698
rhand -20.2799 -6.58444
rfingers 7.12502
rthumb 6.06958 -36.4775
lclavicle 4.82053e-015 -2.22639e-014
lhumerus -48.7742 19.046 63.8311
lradius 34.9723
lwrist 14.4793
lhand -17.5915 2.28998
lfingers 7.12502
lthumb 8.66453 32.0922
rfemur -0.98864 -1.98777 28.4004
rtibia 23.3122
rfoot -8.98626 -30.7594
rtoes 1.41977
lfemur -48.6615 2.24123 -13.5397
ltibia 19.3371
lfoot -4.71408 22.3439
ltoes -18.4076
